<?xml version="1.0" standalone="no"?>
<!DOCTYPE svg PUBLIC "-//W3C//DTD SVG 20010904//EN"
 "http://www.w3.org/TR/2001/REC-SVG-20010904/DTD/svg10.dtd">
<svg version="1.0" xmlns="http://www.w3.org/2000/svg"
 width="768.000000pt" height="483.000000pt" viewBox="0 0 768.000000 483.000000"
 preserveAspectRatio="xMidYMid meet">

<g transform="translate(0.000000,483.000000) scale(0.100000,-0.100000)"
fill="#000000" stroke="none">
<path d="M200 3520 c0 -15 7 -20 25 -20 14 0 37 -11 50 -25 l25 -24 0 -329 c0
-369 0 -366 -70 -381 -21 -4 -36 -14 -38 -24 -3 -15 10 -17 133 -17 123 0 136
2 133 17 -2 10 -17 20 -38 24 -70 15 -70 14 -70 367 0 173 2 313 5 310 2 -2
72 -168 154 -368 l150 -365 21 50 c12 28 48 113 80 190 118 284 201 480 206
484 2 2 4 -135 4 -306 0 -347 0 -347 -70 -362 -21 -4 -36 -14 -38 -24 -3 -15
11 -17 162 -17 159 0 166 1 166 20 0 15 -7 20 -27 20 -16 0 -39 11 -55 27
l-28 27 0 322 0 322 26 31 c18 22 35 31 55 31 22 0 29 5 29 20 0 20 -5 21
-111 18 l-112 -3 -131 -312 c-71 -172 -133 -313 -137 -313 -4 0 -63 141 -132
313 l-124 312 -122 3 c-116 2 -121 2 -121 -18z"/>
<path d="M1712 3523 c2 -10 17 -20 37 -24 70 -15 71 -16 71 -378 l0 -325 -27
-28 c-17 -18 -37 -28 -55 -28 -21 0 -28 -5 -28 -20 0 -19 7 -20 165 -20 158 0
165 1 165 20 0 15 -7 20 -29 20 -20 0 -37 9 -55 31 -25 29 -26 36 -26 142 l1
112 45 49 c27 30 48 45 52 39 4 -6 70 -101 147 -212 l139 -201 393 0 c386 0
393 0 393 20 0 14 -7 20 -23 20 -13 0 -33 10 -45 23 -21 22 -22 33 -22 174 0
174 4 183 92 227 62 31 117 33 149 7 23 -19 24 -24 27 -201 3 -177 3 -183 -19
-206 -12 -13 -33 -24 -46 -24 -16 0 -23 -6 -23 -20 0 -19 7 -20 141 -20 128 0
140 2 137 17 -2 10 -12 19 -23 21 -11 2 -30 13 -42 25 -22 20 -23 27 -23 186
0 91 -5 183 -10 203 -13 45 -66 93 -114 102 -59 11 -135 -16 -195 -70 -54 -49
-53 -49 -68 21 l-9 40 -82 3 c-77 3 -82 2 -82 -18 0 -13 7 -20 18 -20 10 0 30
-13 45 -28 l27 -28 0 -185 c0 -181 -1 -186 -23 -207 -34 -32 -115 -31 -145 1
-21 22 -22 33 -24 252 l-3 230 -95 0 c-82 0 -95 -2 -98 -17 -3 -13 3 -18 19
-18 13 0 36 -12 51 -27 l28 -27 0 -182 c0 -168 -1 -183 -21 -208 -17 -22 -28
-26 -72 -26 -74 0 -101 25 -279 262 l-150 200 24 26 c179 202 256 271 301 272
20 0 27 5 27 20 0 19 -7 20 -150 20 -143 0 -150 -1 -150 -20 0 -14 7 -20 23
-20 27 0 70 -41 65 -63 -4 -17 -289 -337 -300 -337 -5 0 -8 76 -8 169 0 168 0
170 26 200 18 22 35 31 55 31 22 0 29 5 29 20 0 19 -7 20 -166 20 -151 0 -165
-2 -162 -17z"/>
<path d="M2640 3513 c-51 -18 -66 -77 -30 -113 41 -41 120 -12 120 44 0 43
-51 83 -90 69z"/>
<path d="M1400 3251 c-120 -39 -190 -143 -190 -281 0 -165 102 -284 245 -284
73 0 126 17 169 54 34 30 84 125 72 137 -3 4 -25 -12 -49 -34 -23 -22 -52 -46
-64 -52 -30 -15 -127 -14 -166 3 -85 35 -135 137 -123 249 11 112 72 177 164
177 71 0 100 -41 93 -132 -2 -19 2 -28 13 -28 18 0 100 116 91 130 -3 5 -26
22 -51 36 -49 29 -154 42 -204 25z"/>
<path d="M3591 3242 c-98 -49 -108 -190 -18 -254 16 -12 75 -41 131 -65 114
-49 136 -69 136 -123 0 -43 -14 -59 -66 -70 -83 -19 -196 45 -226 127 -7 18
-18 33 -25 33 -10 0 -13 -24 -13 -95 0 -98 3 -105 40 -85 14 8 40 5 97 -10 90
-23 146 -19 195 14 90 61 90 202 -1 261 -20 13 -76 40 -126 60 -106 43 -138
70 -138 116 0 117 218 76 257 -48 4 -13 14 -23 22 -23 11 0 14 18 14 85 0 87
-4 95 -40 73 -15 -10 -30 -9 -73 5 -69 22 -123 22 -166 -1z"/>
<path d="M4110 3239 c-97 -44 -151 -128 -158 -249 -10 -176 94 -301 250 -301
99 0 160 31 202 104 52 90 39 118 -21 48 -41 -48 -87 -65 -164 -59 -71 5 -122
40 -156 108 -22 42 -31 110 -15 110 4 0 79 7 167 15 88 8 166 15 173 15 15 0
16 42 2 92 -32 113 -166 169 -280 117z m149 -33 c33 -18 51 -54 51 -105 l0
-38 -57 -6 c-32 -4 -95 -9 -141 -13 l-82 -7 6 34 c22 115 132 181 223 135z"/>
<path d="M4407 3243 c-14 -13 -6 -31 16 -37 12 -3 34 -18 49 -33 33 -36 212
-418 205 -441 -3 -9 -34 -79 -70 -154 -64 -133 -65 -138 -46 -149 12 -6 22 -9
25 -7 5 6 57 121 201 443 120 270 163 345 200 345 7 0 13 9 13 20 0 20 -5 21
-107 18 -90 -3 -108 -6 -111 -19 -2 -11 7 -18 27 -22 19 -4 35 -16 44 -33 13
-25 10 -36 -47 -170 -34 -79 -64 -144 -67 -144 -8 0 -129 277 -129 294 0 18
43 56 63 56 10 0 17 8 17 20 0 19 -7 20 -138 20 -76 0 -142 -3 -145 -7z"/>
<path d="M1923 2410 c-95 -22 -138 -80 -138 -186 0 -62 4 -77 31 -121 l32 -51
-43 -42 c-110 -108 -122 -278 -27 -377 56 -57 103 -77 199 -81 96 -5 167 13
235 58 l46 31 48 -31 c62 -39 103 -50 187 -50 60 0 67 2 67 20 0 15 -7 20 -27
20 -19 0 -52 19 -98 56 -105 83 -100 73 -71 130 28 55 45 122 46 171 0 38 61
113 91 113 12 0 19 7 19 20 0 19 -7 20 -150 20 -143 0 -150 -1 -150 -20 0 -14
7 -20 23 -20 36 0 87 -38 104 -78 25 -60 -4 -217 -40 -217 -9 0 -99 77 -199
172 -101 94 -202 189 -225 210 -50 47 -62 92 -40 146 42 99 195 102 282 5 20
-22 41 -53 47 -69 5 -16 16 -29 24 -29 11 0 14 21 14 100 0 102 -4 110 -39 88
-15 -9 -35 -8 -95 5 -82 18 -103 19 -153 7z m190 -631 c61 -57 113 -106 115
-110 2 -4 -19 -17 -45 -30 -73 -35 -181 -34 -245 3 -56 33 -113 98 -129 145
-19 59 -7 154 25 204 l29 43 68 -76 c38 -42 120 -123 182 -179z"/>
<path d="M3037 2396 c-136 -56 -213 -162 -238 -329 -30 -205 59 -400 219 -479
62 -31 73 -33 172 -33 92 0 112 3 160 26 77 36 155 119 175 187 12 39 -28 27
-53 -17 -29 -51 -90 -105 -138 -122 -63 -22 -180 -17 -240 9 -132 59 -183 183
-171 417 11 220 86 315 250 315 53 0 71 -5 117 -32 61 -37 113 -106 134 -177
8 -27 20 -47 30 -49 14 -3 16 12 16 142 0 143 -7 173 -33 147 -15 -15 -92 -14
-157 4 -83 22 -174 19 -243 -9z"/>
<path d="M3754 2100 c-95 -42 -155 -137 -158 -249 -2 -103 18 -157 83 -221 63
-62 106 -80 195 -80 101 0 187 54 231 145 73 148 21 326 -114 397 -44 23 -65
28 -125 27 -46 0 -86 -7 -112 -19z m196 -38 c23 -12 43 -35 59 -65 20 -42 23
-61 23 -160 0 -96 -3 -120 -21 -156 -33 -63 -71 -83 -155 -79 -64 4 -70 6
-101 40 -43 46 -55 92 -55 203 1 130 27 191 95 221 43 19 115 17 155 -4z"/>
<path d="M4453 2105 c-18 -7 -52 -32 -77 -55 l-45 -41 -10 38 c-6 21 -11 44
-11 51 0 9 -24 12 -85 12 -78 0 -85 -2 -85 -20 0 -14 7 -20 23 -20 13 0 33
-10 45 -23 21 -22 22 -32 22 -214 l0 -192 -26 -20 c-15 -12 -35 -21 -45 -21
-12 0 -19 -7 -19 -20 0 -19 7 -20 140 -20 133 0 140 1 140 20 0 13 -7 20 -20
20 -12 0 -32 11 -45 25 -24 24 -25 28 -25 181 l0 157 39 38 c47 44 99 63 146
55 60 -12 65 -29 65 -231 0 -177 -1 -182 -23 -203 -13 -12 -33 -22 -45 -22
-15 0 -22 -6 -22 -20 0 -19 7 -20 140 -20 133 0 140 1 140 20 0 13 -7 20 -19
20 -10 0 -30 12 -45 26 -26 27 -26 28 -26 182 l0 155 38 36 c37 36 96 61 141
61 12 0 33 -11 46 -25 25 -24 25 -26 25 -208 0 -179 -1 -184 -23 -205 -13 -12
-31 -22 -40 -22 -10 0 -17 -8 -17 -20 0 -19 7 -20 135 -20 128 0 135 1 135 20
0 13 -7 20 -18 20 -10 0 -30 13 -45 28 l-27 28 0 175 c0 146 -3 180 -18 208
-50 100 -178 107 -280 16 -56 -50 -62 -53 -62 -27 0 19 -41 62 -77 81 -30 15
-101 13 -140 -4z"/>
<path d="M5402 2103 c-18 -9 -48 -34 -67 -56 l-34 -39 -6 26 c-3 14 -7 37 -10
51 -6 26 -6 26 -93 23 -69 -2 -87 -6 -87 -18 0 -9 11 -16 27 -18 15 -2 37 -15
48 -29 19 -25 20 -40 20 -343 l0 -318 -31 -26 c-17 -14 -39 -26 -50 -26 -10 0
-19 -7 -19 -15 0 -13 23 -15 145 -15 122 0 145 2 145 15 0 8 -8 15 -19 15 -10
0 -30 11 -45 25 -26 24 -26 26 -26 160 l0 136 38 -39 c83 -88 217 -81 304 16
46 51 68 122 68 223 0 124 -46 216 -127 258 -33 17 -143 13 -181 -6z m152 -73
c46 -40 60 -86 59 -190 0 -107 -14 -158 -53 -195 -28 -27 -38 -30 -98 -30 -78
0 -119 22 -146 79 -24 51 -22 214 3 264 35 69 84 101 153 102 39 0 54 -6 82
-30z"/>
<path d="M5879 2106 c-42 -15 -109 -55 -109 -64 0 -4 16 -31 35 -60 46 -68 66
-69 58 -3 -5 44 -3 52 20 75 22 22 35 26 87 26 55 0 65 -3 91 -29 26 -27 29
-36 29 -95 0 -74 13 -64 -119 -91 -139 -29 -196 -79 -195 -169 0 -61 19 -97
67 -126 62 -38 137 -20 206 49 23 23 43 41 45 41 2 0 7 -22 11 -50 l7 -50 229
0 c222 0 229 1 229 20 0 13 -7 20 -18 20 -10 0 -30 13 -45 28 -27 28 -27 29
-27 174 0 140 1 148 24 175 32 38 109 75 158 77 32 1 45 -5 64 -27 23 -27 24
-33 24 -206 0 -173 -1 -178 -23 -199 -13 -12 -33 -22 -45 -22 -15 0 -22 -6
-22 -20 0 -19 7 -20 140 -20 133 0 140 1 140 20 0 13 -7 20 -19 20 -10 0 -30
11 -45 25 l-26 24 0 178 c0 150 -3 184 -18 213 -53 106 -190 106 -306 0 l-44
-41 -12 55 -11 56 -85 0 c-77 0 -84 -2 -84 -20 0 -14 7 -20 23 -20 13 0 33
-10 45 -23 21 -22 22 -32 22 -214 l0 -192 -26 -20 c-39 -31 -100 -28 -136 6
l-28 27 0 175 c0 216 -10 241 -105 278 -40 16 -161 15 -206 -1z m195 -411
c-43 -66 -145 -87 -183 -39 -29 37 -28 95 2 130 17 19 45 32 107 49 l85 22 3
-68 c2 -51 -1 -75 -14 -94z"/>
<path d="M6890 2090 c0 -13 7 -20 18 -20 35 0 73 -58 167 -259 l95 -203 -72
-150 c-59 -123 -69 -151 -57 -159 25 -16 34 -9 57 44 13 28 85 189 159 357
135 303 174 370 215 370 11 0 18 7 18 20 0 19 -7 20 -110 20 -102 0 -110 -1
-110 -19 0 -14 8 -21 27 -23 17 -2 33 -13 41 -28 13 -23 10 -36 -48 -173 -35
-81 -67 -144 -71 -140 -6 7 -97 212 -120 270 -11 29 23 73 57 73 17 0 24 5 24
20 0 19 -7 20 -145 20 -138 0 -145 -1 -145 -20z"/>
</g>
</svg>
